HIERARCHY
ROOT Hips
{
	OFFSET 0.000000 0.000000 0.000000
	CHANNELS 6 Xposition Yposition Zposition Zrotation Yrotation Xrotation 
	JOINT LHipJoint
	{
		OFFSET 0.000000 0.000000 0.000000
		CHANNELS 3 Zrotation Yrotation Xrotation
		JOINT LeftUpLeg
		{
			OFFSET 1.363060 -1.794630 0.839290
			CHANNELS 3 Zrotation Yrotation Xrotation
			JOINT LeftLeg
			{
				OFFSET 2.448110 -6.726130 0.000000
				CHANNELS 3 Zrotation Yrotation Xrotation
				JOINT LeftFoot
				{
					OFFSET 2.562200 -7.039590 0.000000
					CHANNELS 3 Zrotation Yrotation Xrotation
					JOINT LeftToeBase
					{
						OFFSET 0.157640 -0.433110 2.322550
						CHANNELS 3 Zrotation Yrotation Xrotation
						End Site
						{
							OFFSET 0.000000 0.000000 0.000000
						}
					}
				}
			}
		}
	}
	JOINT RHipJoint
	{
		OFFSET 0.000000 0.000000 0.000000
		CHANNELS 3 Zrotation Yrotation Xrotation
		JOINT RightUpLeg
		{
			OFFSET -1.305520 -1.794630 0.839290
			CHANNELS 3 Zrotation Yrotation Xrotation
			JOINT RightLeg
			{
				OFFSET -2.542530 -6.985550 0.000000
				CHANNELS 3 Zrotation Yrotation Xrotation
				JOINT RightFoot
				{
					OFFSET -2.568260 -7.056230 0.000000
					CHANNELS 3 Zrotation Yrotation Xrotation
					JOINT RightToeBase
					{
						OFFSET -0.164730 -0.452590 2.363150
						CHANNELS 3 Zrotation Yrotation Xrotation
						End Site
						{
							OFFSET 0.000000 0.000000 0.000000
						}
					}
				}
			}
		}
	}
	JOINT LowerBack
	{
		OFFSET 0.000000 0.000000 0.000000
		CHANNELS 3 Zrotation Yrotation Xrotation
		JOINT Spine
		{
			OFFSET 0.028270 2.035590 -0.193380
			CHANNELS 3 Zrotation Yrotation Xrotation
			JOINT Spine1
			{
				OFFSET 0.056720 2.048850 -0.042750
				CHANNELS 3 Zrotation Yrotation Xrotation
				JOINT Neck
				{
					OFFSET 0.000000 0.000000 0.000000
					CHANNELS 3 Zrotation Yrotation Xrotation
					JOINT Neck1
					{
						OFFSET -0.054170 1.746240 0.172020
						CHANNELS 3 Zrotation Yrotation Xrotation
						JOINT Head
						{
							OFFSET 0.104070 1.761360 -0.123970
							CHANNELS 3 Zrotation Yrotation Xrotation
							End Site
							{
								OFFSET 0.000000 0.000000 0.000000
							}
						}
					}
				}
				JOINT LeftShoulder
				{
					OFFSET 0.000000 0.000000 0.000000
					CHANNELS 3 Zrotation Yrotation Xrotation
					JOINT LeftArm
					{
						OFFSET 3.362410 1.200890 -0.311210
						CHANNELS 3 Zrotation Yrotation Xrotation
						JOINT LeftForeArm
						{
							OFFSET 4.983000 -0.000000 -0.000000
							CHANNELS 3 Zrotation Yrotation Xrotation
							JOINT LeftHand
							{
								OFFSET 3.483560 -0.000000 -0.000000
								CHANNELS 3 Zrotation Yrotation Xrotation
								JOINT LeftFingerBase
								{
									OFFSET 0.000000 0.000000 0.000000
									CHANNELS 3 Zrotation Yrotation Xrotation
									JOINT LeftHandIndex1
									{
										OFFSET 0.715260 -0.000000 -0.000000
										CHANNELS 3 Zrotation Yrotation Xrotation
										End Site
										{
											OFFSET 0.000000 0.000000 0.000000
										}
									}
								}
								JOINT LThumb
								{
									OFFSET 0.000000 0.000000 0.000000
									CHANNELS 3 Zrotation Yrotation Xrotation
									End Site
									{
										OFFSET 0.000000 0.000000 0.000000
									}
								}
							}
						}
					}
				}
				JOINT RightShoulder
				{
					OFFSET 0.000000 0.000000 0.000000
					CHANNELS 3 Zrotation Yrotation Xrotation
					JOINT RightArm
					{
						OFFSET -3.136600 1.374050 -0.404650
						CHANNELS 3 Zrotation Yrotation Xrotation
						JOINT RightForeArm
						{
							OFFSET -5.241900 -0.000000 -0.000000
							CHANNELS 3 Zrotation Yrotation Xrotation
							JOINT RightHand
							{
								OFFSET -3.444170 -0.000000 -0.000000
								CHANNELS 3 Zrotation Yrotation Xrotation
								JOINT RightFingerBase
								{
									OFFSET 0.000000 0.000000 0.000000
									CHANNELS 3 Zrotation Yrotation Xrotation
									JOINT RightHandIndex1
									{
										OFFSET -0.622530 -0.000000 -0.000000
										CHANNELS 3 Zrotation Yrotation Xrotation
										End Site
										{
											OFFSET 0.000000 0.000000 0.000000
										}
									}
								}
								JOINT RThumb
								{
									OFFSET 0.000000 0.000000 0.000000
									CHANNELS 3 Zrotation Yrotation Xrotation
									End Site
									{
										OFFSET 0.000000 0.000000 0.000000
									}
								}
							}
						}
					}
				}
			}
		}
	}
}
MOTION
Frames: 5
Frame Time: 0.008333
-2.674040 16.267443 1.056791 25.356691 60.624420 18.271737 -10.768200 4.618224 -2.342543 5.771110 24.317470 -2.816258 0.241189 2.571285 49.204568 1.458052 -4.994432 28.210409 -3.526700 -0.000000 -69.637400 9.761698 -0.174718 -1.558833 19.001134 -18.607796 -22.023244 1.508166 0.290581 17.703162 -7.030876 -24.880856 -31.490895 -170.159600 -0.000000 -30.816300 -5.516660 -6.101160 0.125824 -1.407141 -5.898945 -1.703535 -5.235299 -5.874793 3.783665 8.528486 -19.021610 -10.871464 -2.613622 -0.150455 -0.859206 0.000000 0.000000 0.000000 -0.153977 19.434773 1.722192 -25.070184 1.633302 -19.070365 -1.459717 -57.391337 -0.003108 0.817591 0.864475 0.006030 -0.109427 0.204366 0.000000 0.000000 0.000000 0.000000 0.000000 0.000000 0.000000 17.513339 -18.119588 -0.519179 78.747543 -25.195032 -27.277549 4.545082 7.340286 0.004730 1.167959 1.800204 0.016691 0.127735 -0.016560 0.000000 0.000000 0.000000 0.000000 0.000000 0.000000 0.000000 
-2.547350 16.250064 1.161088 24.773504 59.892333 17.851310 -10.794919 4.569662 -2.156077 5.761625 23.368735 -3.918742 0.306642 2.614866 51.024133 1.532054 -4.860335 28.914744 -3.545800 -0.000000 -65.351000 9.730398 -0.274241 -1.626886 19.201286 -18.856261 -22.280770 1.641783 0.140774 19.257508 -6.852403 -23.827207 -32.196325 -170.200100 -0.000000 -31.109200 -5.322232 -5.944549 -0.030304 -1.393629 -5.748604 -1.751875 -5.314668 -5.725256 3.754406 8.629968 -18.822778 -10.874763 -2.663820 -0.155364 -0.859612 0.000000 0.000000 0.000000 -0.096531 19.427838 1.742326 -25.415598 2.075739 -19.253606 -1.506874 -56.963211 -0.003404 0.905945 0.888607 0.006861 -0.114976 0.198796 0.000000 0.000000 0.000000 0.000000 0.000000 0.000000 0.000000 17.729894 -17.773689 -0.527527 78.180892 -24.233411 -26.894981 4.508688 7.298871 0.005008 0.958066 1.931404 0.014298 0.127754 -0.018365 0.000000 0.000000 0.000000 0.000000 0.000000 0.000000 0.000000 
-2.427052 16.233741 1.262956 24.106239 59.085068 17.396010 -10.814960 4.507370 -1.983112 5.672226 22.376203 -5.101199 0.378574 2.666600 52.792210 1.603844 -4.115528 29.156165 -3.191400 -0.000000 -61.469900 9.699725 -0.368721 -1.677527 19.426768 -18.931556 -22.506680 1.755772 -0.004883 20.760836 -6.701293 -22.905797 -32.863852 -170.232600 0.000001 -31.322100 -5.114317 -5.777177 -0.172807 -1.379178 -5.588411 -1.799844 -5.402276 -5.565427 3.721538 8.760753 -18.574763 -10.875248 -2.714349 -0.160371 -0.859187 0.000000 0.000000 0.000000 -0.012670 19.410596 1.760255 -25.887526 2.604638 -19.403713 -1.561354 -56.469158 -0.004144 1.104883 0.950599 0.008897 -0.122346 0.192281 0.000000 0.000000 0.000000 0.000000 0.000000 0.000000 0.000000 17.950428 -17.371923 -0.526147 77.601481 -23.090305 -26.514340 4.465239 7.204618 0.005335 0.719839 2.096014 0.011106 0.127640 -0.020462 0.000000 0.000000 0.000000 0.000000 0.000000 0.000000 0.000000 
-2.313556 16.218569 1.362966 23.373241 58.205935 16.913948 -10.827426 4.430077 -1.830662 5.532083 21.363365 -6.338588 0.457832 2.726812 54.494845 1.674010 -2.836305 28.930791 -2.511100 -0.000001 -57.639800 9.673252 -0.454016 -1.708296 19.667652 -18.807260 -22.636557 1.842958 -0.136739 22.124659 -6.584859 -22.158996 -33.469201 -170.245600 0.000001 -31.473000 -4.904398 -5.603645 -0.295160 -1.365135 -5.422460 -1.845874 -5.494650 -5.399503 3.684868 8.916111 -18.282797 -10.869987 -2.763101 -0.165314 -0.857164 0.000000 0.000000 0.000000 0.101711 19.375819 1.777138 -26.474239 3.238670 -19.506559 -1.623037 -55.913453 -0.005200 1.393450 1.037125 0.012136 -0.131089 0.184900 0.000000 0.000000 0.000000 0.000000 0.000000 0.000000 0.000000 18.163952 -16.922841 -0.515000 77.025631 -21.779895 -26.090244 4.413306 7.092217 0.005704 0.430740 2.293397 0.006314 0.127557 -0.022790 0.000000 0.000000 0.000000 0.000000 0.000000 0.000000 0.000000 
-2.207055 16.204526 1.461859 22.606602 57.262816 16.421107 -10.829677 4.337488 -1.699712 5.355724 20.336948 -7.591938 0.542343 2.791487 56.083557 1.748061 -1.112169 28.320911 -1.581600 0.000000 -54.443799 9.655475 -0.525865 -1.723223 19.907872 -18.498385 -22.626443 1.902083 -0.248382 23.290204 -6.502490 -21.591184 -34.000047 -170.235300 0.000000 -31.565001 -4.708383 -5.429519 -0.391503 -1.353876 -5.255444 -1.887974 -5.588786 -5.232247 3.645683 9.089316 -17.942448 -10.854915 -2.808672 -0.170088 -0.852623 0.000000 0.000000 0.000000 0.247853 19.332652 1.793706 -27.158503 3.961269 -19.542644 -1.693112 -55.278365 -0.006405 1.741984 1.131967 0.016573 -0.140670 0.176729 0.000000 0.000000 0.000000 0.000000 0.000000 0.000000 0.000000 18.359691 -16.427164 -0.495950 76.475187 -20.311576 -25.733912 4.353228 6.953782 0.006146 0.097653 2.541803 -0.000476 0.127493 -0.025699 0.000000 0.000000 0.000000 0.000000 0.000000 0.000000 0.000000 
